<?xml version="1.0" encoding="utf-8"?>
<!-- Generator: Adobe Illustrator 23.0.4, SVG Export Plug-In . SVG Version: 6.00 Build 0)  -->
<svg version="1.1" id="Layer_1" xmlns="http://www.w3.org/2000/svg" xmlns:xlink="http://www.w3.org/1999/xlink" x="0px" y="0px"
	 viewBox="0 0 737 226.8" style="enable-background:new 0 0 737 226.8;" xml:space="preserve">
<style type="text/css">
	.st0{fill:none;}
	.st1{fill:#1D1D1B;}
	.st2{fill:#010101;}
	.st3{fill:#231F20;}
	.st4{fill:#7E6CB1;}
	.st5{fill:#444A58;}
	.st6{fill:#FFFFFF;}
</style>
<rect class="st0" width="56.7" height="56.7"/>
<rect x="56.7" class="st0" width="56.7" height="56.7"/>
<rect x="113.4" class="st0" width="56.7" height="56.7"/>
<rect x="170.1" class="st0" width="56.7" height="56.7"/>
<rect x="226.8" class="st0" width="56.7" height="56.7"/>
<rect x="283.5" class="st0" width="56.7" height="56.7"/>
<rect x="340.2" class="st0" width="56.7" height="56.7"/>
<rect x="396.9" class="st0" width="56.7" height="56.7"/>
<rect x="453.5" class="st0" width="56.7" height="56.7"/>
<rect x="510.2" class="st0" width="56.7" height="56.7"/>
<rect x="566.9" class="st0" width="56.7" height="56.7"/>
<rect x="623.6" class="st0" width="56.7" height="56.7"/>
<rect x="680.3" class="st0" width="56.7" height="56.7"/>
<g>
	<polygon class="st1" points="25.2,30.3 15.9,39.5 15.9,35.4 14.2,35.4 14.2,42.5 21.3,42.5 21.3,40.7 17.1,40.7 26.4,31.5 	"/>
	<polygon class="st1" points="21.3,15.9 21.3,14.2 14.2,14.2 14.2,21.3 15.9,21.3 15.9,17.1 25.2,26.4 26.4,25.2 17.1,15.9 	"/>
	<polygon class="st1" points="35.4,14.2 35.4,15.9 39.5,15.9 30.2,25.2 31.5,26.4 40.7,17.1 40.7,21.3 42.5,21.3 42.5,14.2 	"/>
	<polygon class="st1" points="40.7,39.6 31.5,30.2 30.2,31.5 39.5,40.7 35.4,40.7 35.4,42.5 42.5,42.5 42.5,35.4 40.7,35.4 	"/>
</g>
<polygon id="svg_8" class="st1" points="99.2,15.3 97.9,14.2 85,27.1 72.1,14.2 70.9,15.4 83.8,28.3 70.9,41.3 72.1,42.5 85,29.6 
	97.9,42.5 99.1,41.3 86.3,28.3 "/>
<g id="svg_4">
	<rect id="svg_5" x="127.6" y="17.5" class="st1" width="28.3" height="1.8"/>
	<rect id="svg_6" x="127.6" y="27.5" class="st1" width="28.3" height="1.8"/>
	<rect id="svg_7" x="127.6" y="37.4" class="st1" width="28.3" height="1.8"/>
</g>
<path id="svg_14" class="st1" d="M211.9,41.9l0.6-0.6l-7.7-7.8c1.8-2,2.8-4.7,2.8-7.6c0-6.4-5.2-11.7-11.7-11.7
	c-6.4,0-11.7,5.2-11.7,11.7c0,6.4,5.2,11.7,11.7,11.7c2.9,0,5.6-1.1,7.6-2.8l7.1,7.1c0.1,0.1,0.1,0.1,0.2,0.1l0.4,0.4L211.9,41.9
	L211.9,41.9L211.9,41.9z M186,25.9c0-5.5,4.5-10,10-10c5.4,0,10,4.5,10,10s-4.5,10-10,10C190.5,35.9,186,31.4,186,25.9z"/>
<g id="svg_15">
	<polygon id="svg_16" class="st1" points="260.1,14.2 260.1,15.9 266.2,15.9 260.1,22.1 261.3,23.4 267.5,17.1 267.5,23.4 
		269.3,23.4 269.3,14.2 	"/>
	<polygon id="svg_17" class="st1" points="267.5,40.7 242.7,40.7 242.7,15.9 255.1,15.9 255.1,14.2 240.9,14.2 240.9,42.5 
		269.3,42.5 269.3,28.3 267.5,28.3 	"/>
</g>
<g>
	<g>
		<path class="st2" d="M311.7,42c-0.2,0-0.4-0.1-0.6-0.2c-0.5-0.4-13.5-10.5-13.5-18.9c0-4.4,3.6-8.1,8.1-8.1c4.4,0,8.1,3.6,8.1,8.1
			c0,0.5-0.5,1-1,1c-0.5,0-1-0.5-1-1c0-3.3-2.7-6.1-6.1-6.1c-3.3,0-6.1,2.7-6.1,6.1c0,6.5,9.5,14.8,12.1,16.9
			c2.5-2.1,12.1-10.4,12.1-16.9c0-3.3-2.7-6.1-6.1-6.1c-0.9,0-1.8,0.2-2.6,0.5c-0.5,0.2-1.1,0-1.4-0.5c-0.2-0.5,0-1.1,0.5-1.4
			c1.1-0.5,2.2-0.7,3.5-0.7c4.4,0,8.1,3.6,8.1,8.1c0,8.4-12.9,18.5-13.5,18.9C312.2,41.9,311.9,42,311.7,42z"/>
	</g>
</g>
<path class="st2" d="M379.9,21.5c0-0.5-0.4-0.9-0.9-0.9h-4.7v-1.4c0-2.8-2.6-5-5.9-5s-5.9,2.3-5.9,5v1.4H358c-0.5,0-0.9,0.4-0.9,0.9
	l-1.3,20.1c0,0.2,0.1,0.5,0.2,0.6c0.1,0.2,0.4,0.3,0.6,0.3h23.6c0.2,0,0.5-0.1,0.6-0.3c0.1-0.2,0.3-0.4,0.2-0.6L379.9,21.5z
	 M364.4,19.3c0-1.8,1.8-3.3,4.1-3.3c2.3,0,4.1,1.5,4.1,3.3v1.4h-8.1L364.4,19.3L364.4,19.3z M362.6,22.4v1.9c0,0.5,0.4,0.9,0.9,0.9
	s0.9-0.4,0.9-0.9v-1.9h8.1v1.9c0,0.5,0.4,0.9,0.9,0.9s0.9-0.4,0.9-0.9v-1.9h3.8l0.8,12.3h-21l0.8-12.3H362.6z M357.6,40.8l0.3-4.9
	H379l0.3,4.9H357.6z"/>
<polygon id="svg_112" class="st1" points="432.9,28.3 431.7,27.1 418.7,14.2 417.5,15.3 430.5,28.3 417.5,41.4 418.7,42.5 
	431.7,29.6 431.7,29.6 "/>
<polygon id="svg_112_1_" class="st1" points="474.2,28.3 475.4,29.6 488.4,42.5 489.6,41.4 476.5,28.3 489.6,15.3 488.4,14.2 
	475.4,27.1 475.4,27.1 "/>
<g>
	<path class="st3" d="M533.9,14.2L533.9,14.2L533.9,14.2L533.9,14.2c-7.5,0-13.6,6.1-13.6,13.6s6,13.6,13.6,13.6l0,0l0,0l0,0
		c0.6,0,1.3-0.1,1.9-0.1v-1.8c-0.4,0.4-0.9,0.7-1.4,0.8v-5.9c0.5,0,0.9,0.1,1.4,0.1v-1.1c-0.5-0.1-0.9-0.1-1.4-0.1v-4.9h4.9
		c0,0.5,0,0.9-0.1,1.4h1.1c0-0.5,0.1-0.9,0.1-1.4h6c0,0.5-0.1,0.9-0.1,1.4h1.1c0.1-0.6,0.1-1.2,0.1-1.9
		C547.4,20.3,541.4,14.2,533.9,14.2z M531,15.6c-1,1.1-2,2.8-2.6,4.7c-1.2-0.3-2.3-0.8-3.4-1.4C526.6,17.4,528.6,16.2,531,15.6z
		 M524.2,19.9c1.2,0.7,2.5,1.2,3.9,1.6c-0.4,1.8-0.7,3.7-0.7,5.8h-5.9C521.5,24.4,522.6,21.8,524.2,19.9z M524.2,35.7
		c-1.7-2-2.7-4.6-2.8-7.4h5.9c0.1,2.1,0.3,4,0.7,5.8C526.7,34.4,525.5,35,524.2,35.7z M525,36.5c1.1-0.5,2.2-1,3.4-1.4
		c0.6,2,1.5,3.7,2.6,4.8C528.6,39.3,526.6,38.1,525,36.5z M533.3,40.1c-1.5-0.4-3-2.4-3.9-5.4c1.3-0.3,2.6-0.5,3.9-0.5V40.1z
		 M533.3,33.2c-1.4,0.1-2.8,0.2-4.2,0.5c-0.4-1.6-0.7-3.5-0.7-5.5h4.9V33.2z M533.3,27.2h-4.9c0.1-2,0.3-3.9,0.7-5.5
		c1.4,0.3,2.8,0.5,4.2,0.5V27.2z M533.3,21.2c-1.4-0.1-2.6-0.2-3.9-0.5c0.9-3,2.4-5,3.9-5.4V21.2z M534.4,15.4
		c1.5,0.4,2.9,2.4,3.9,5.4c-1.2,0.3-2.6,0.5-3.9,0.5V15.4z M534.4,27.2v-4.9l0,0c1.4-0.1,2.8-0.2,4.2-0.5c0.4,1.6,0.7,3.5,0.7,5.5
		L534.4,27.2L534.4,27.2z M536.8,15.6c2.3,0.5,4.3,1.8,6,3.4c-1.1,0.5-2.2,1-3.4,1.4C538.8,18.4,537.9,16.7,536.8,15.6z M546.3,27.2
		h-6c-0.1-2-0.3-4-0.7-5.8c1.4-0.4,2.6-0.9,3.9-1.6C545.2,21.8,546.2,24.4,546.3,27.2z"/>
	<polygon class="st3" points="546.8,32.6 545.2,32.6 539.8,38.1 539.8,32.6 538.3,32.6 538.3,42.5 539.8,42.5 539.8,39.9 541.6,38 
		545.5,42.5 547.1,42.5 542.5,37 	"/>
	<path class="st3" d="M554.5,39.1c1.4-0.5,2.2-1.6,2.2-3.1c0-2.2-1.6-3.5-4.1-3.5h-3.9v10h1.4v-3.1h2.4c0.2,0,0.4,0,0.6,0l2.2,3.1
		h1.6L554.5,39.1z M552.5,38.2H550v-4.5h2.4c1.8,0,2.8,0.8,2.8,2.2S554.3,38.2,552.5,38.2z"/>
</g>
<g>
	<path class="st3" d="M590.7,14.2L590.7,14.2L590.7,14.2L590.7,14.2c-7.5,0-13.6,6.1-13.6,13.6s6,13.6,13.6,13.6l0,0l0,0l0,0
		c0.6,0,1.3-0.1,1.9-0.1v-1.8c-0.4,0.4-0.9,0.7-1.4,0.8v-5.9c0.5,0,0.9,0.1,1.4,0.1v-1.1c-0.5-0.1-0.9-0.1-1.4-0.1v-4.9h4.9
		c0,0.5,0,0.9-0.1,1.4h1.1c0-0.5,0.1-0.9,0.1-1.4h6c0,0.5-0.1,0.9-0.1,1.4h1.1c0.1-0.6,0.1-1.2,0.1-1.9
		C604.3,20.3,598.3,14.2,590.7,14.2z M587.8,15.6c-1,1.1-2,2.8-2.6,4.7c-1.2-0.3-2.3-0.8-3.4-1.4C583.5,17.4,585.5,16.2,587.8,15.6z
		 M581.1,19.9c1.2,0.7,2.5,1.2,3.9,1.6c-0.4,1.8-0.7,3.7-0.7,5.8h-5.9C578.4,24.4,579.5,21.8,581.1,19.9z M581.1,35.7
		c-1.7-2-2.7-4.6-2.8-7.4h5.9c0.1,2.1,0.3,4,0.7,5.8C583.6,34.4,582.3,35,581.1,35.7z M581.8,36.5c1.1-0.5,2.2-1,3.4-1.4
		c0.6,2,1.5,3.7,2.6,4.8C585.5,39.3,583.5,38.1,581.8,36.5z M590.2,40.1c-1.5-0.4-3-2.4-3.9-5.4c1.3-0.3,2.6-0.5,3.9-0.5V40.1z
		 M590.2,33.2c-1.4,0.1-2.8,0.2-4.2,0.5c-0.4-1.6-0.7-3.5-0.7-5.5h4.9V33.2z M590.2,27.2h-4.9c0.1-2,0.3-3.9,0.7-5.5
		c1.4,0.3,2.8,0.5,4.2,0.5V27.2z M590.2,21.2c-1.4-0.1-2.6-0.2-3.9-0.5c0.9-3,2.4-5,3.9-5.4V21.2z M591.3,15.4
		c1.5,0.4,2.9,2.4,3.9,5.4c-1.2,0.3-2.6,0.5-3.9,0.5V15.4z M591.3,27.2v-4.9l0,0c1.4-0.1,2.8-0.2,4.2-0.5c0.4,1.6,0.7,3.5,0.7,5.5
		L591.3,27.2L591.3,27.2z M593.6,15.6c2.3,0.5,4.3,1.8,6,3.4c-1.1,0.5-2.2,1-3.4,1.4C595.6,18.4,594.7,16.7,593.6,15.6z M603.2,27.2
		h-6c-0.1-2-0.3-4-0.7-5.8c1.4-0.4,2.6-0.9,3.9-1.6C602.1,21.8,603.1,24.4,603.2,27.2z"/>
	<polygon class="st3" points="596.6,38 601.7,38 601.7,36.8 596.6,36.8 596.6,33.8 602.3,33.8 602.3,32.6 595.2,32.6 595.2,42.5 
		602.5,42.5 602.5,41.2 596.6,41.2 	"/>
	<polygon class="st3" points="612,32.6 612,39.9 605.9,32.6 604.8,32.6 604.8,42.5 606.2,42.5 606.2,35.1 612.2,42.5 613.4,42.5 
		613.4,32.6 	"/>
</g>
<path class="st2" d="M664.3,21.2c-1.3-2.2-3-3.9-5.1-5.1c-2.2-1.3-4.6-1.9-7.1-1.9s-5,0.6-7.1,1.9c-2.2,1.3-3.9,3-5.1,5.1
	s-1.9,4.5-1.9,7.1c0,2.6,0.6,5,1.9,7.1c1.3,2.2,3,3.9,5.1,5.1c2.2,1.3,4.6,1.9,7.1,1.9c2.6,0,5-0.6,7.1-1.9s3.9-3,5.1-5.1
	c1.3-2.2,1.9-4.5,1.9-7.1C666.1,25.7,665.5,23.4,664.3,21.2z M659.1,29.3l-10.1,6c-0.1,0.1-0.4,0.2-0.6,0.2s-0.4,0-0.6-0.1
	c-0.4-0.2-0.6-0.6-0.6-1V22.5c0-0.5,0.2-0.8,0.6-1c0.4-0.2,0.8-0.2,1.2,0l10.1,5.9c0.4,0.2,0.6,0.6,0.6,1
	C659.6,28.8,659.4,29.1,659.1,29.3z"/>
<path class="st2" d="M708.8,14.2c-7.9,0-14.3,6.2-14.3,14.2c0,7.7,6.3,14.1,13.9,14.2c7.9,0.1,14.4-6.3,14.4-14
	C722.9,20.6,716.6,14.2,708.8,14.2z M702.8,21.3h11.7v1.7h-11.7V21.3z M713.5,31.6l-4.1-4.5v8.3h-1.5v-8.4l-4.1,4.5l-1.1-1.2l6-6.5
	l6,6.5L713.5,31.6z"/>
<rect y="56.7" class="st0" width="56.7" height="56.7"/>
<rect x="56.7" y="56.7" class="st0" width="56.7" height="56.7"/>
<rect x="113.4" y="56.7" class="st0" width="56.7" height="56.7"/>
<rect x="170.1" y="56.7" class="st0" width="56.7" height="56.7"/>
<rect x="226.8" y="56.7" class="st0" width="56.7" height="56.7"/>
<rect x="283.5" y="56.7" class="st0" width="56.7" height="56.7"/>
<rect x="340.2" y="56.7" class="st0" width="56.7" height="56.7"/>
<rect x="396.9" y="56.7" class="st0" width="56.7" height="56.7"/>
<rect x="453.5" y="56.7" class="st0" width="56.7" height="56.7"/>
<rect x="510.2" y="56.7" class="st0" width="56.7" height="56.7"/>
<rect x="566.9" y="56.7" class="st0" width="56.7" height="56.7"/>
<rect x="623.6" y="56.7" class="st0" width="56.7" height="56.7"/>
<rect x="680.3" y="56.7" class="st0" width="56.7" height="56.7"/>
<g>
	<polygon class="st4" points="25.2,87 15.9,96.2 15.9,92.1 14.2,92.1 14.2,99.2 21.3,99.2 21.3,97.4 17.1,97.4 26.4,88.2 	"/>
	<polygon class="st4" points="21.3,72.6 21.3,70.9 14.2,70.9 14.2,78 15.9,78 15.9,73.8 25.2,83.1 26.4,81.9 17.1,72.6 	"/>
	<polygon class="st4" points="35.4,70.9 35.4,72.6 39.5,72.6 30.2,81.9 31.5,83.1 40.7,73.8 40.7,78 42.5,78 42.5,70.9 	"/>
	<polygon class="st4" points="40.7,96.3 31.5,86.9 30.2,88.2 39.5,97.4 35.4,97.4 35.4,99.2 42.5,99.2 42.5,92.1 40.7,92.1 	"/>
</g>
<polygon id="svg_8_1_" class="st4" points="99.2,72 97.9,70.9 85,83.8 72.1,70.9 70.9,72.1 83.8,85 70.9,98 72.1,99.2 85,86.2 
	97.9,99.2 99.1,98 86.3,85 "/>
<g id="svg_4_1_">
	<rect id="svg_5_1_" x="127.6" y="74.2" class="st4" width="28.3" height="1.8"/>
	<rect id="svg_6_1_" x="127.6" y="84.2" class="st4" width="28.3" height="1.8"/>
	<rect id="svg_7_1_" x="127.6" y="94.1" class="st4" width="28.3" height="1.8"/>
</g>
<path id="svg_14_1_" class="st4" d="M211.9,98.6l0.6-0.6l-7.7-7.8c1.8-2,2.8-4.7,2.8-7.6c0-6.4-5.2-11.7-11.7-11.7
	c-6.4,0-11.7,5.2-11.7,11.7c0,6.4,5.2,11.7,11.7,11.7c2.9,0,5.6-1.1,7.6-2.8l7.1,7.1c0.1,0.1,0.1,0.1,0.2,0.1l0.4,0.4L211.9,98.6
	L211.9,98.6L211.9,98.6z M186,82.6c0-5.5,4.5-10,10-10c5.4,0,10,4.5,10,10c0,5.5-4.5,10-10,10C190.5,92.6,186,88,186,82.6z"/>
<g id="svg_15_1_">
	<polygon id="svg_16_1_" class="st4" points="260.1,70.9 260.1,72.6 266.2,72.6 260.1,78.8 261.3,80.1 267.5,73.8 267.5,80.1 
		269.3,80.1 269.3,70.9 	"/>
	<polygon id="svg_17_1_" class="st4" points="267.5,97.4 242.7,97.4 242.7,72.6 255.1,72.6 255.1,70.9 240.9,70.9 240.9,99.2 
		269.3,99.2 269.3,85 267.5,85 	"/>
</g>
<g>
	<g>
		<path class="st4" d="M311.7,98.7c-0.2,0-0.4-0.1-0.6-0.2c-0.5-0.4-13.5-10.5-13.5-18.9c0-4.4,3.6-8.1,8.1-8.1
			c4.4,0,8.1,3.6,8.1,8.1c0,0.5-0.5,1-1,1c-0.5,0-1-0.5-1-1c0-3.3-2.7-6.1-6.1-6.1c-3.3,0-6.1,2.7-6.1,6.1c0,6.5,9.5,14.8,12.1,16.9
			c2.5-2.1,12.1-10.4,12.1-16.9c0-3.3-2.7-6.1-6.1-6.1c-0.9,0-1.8,0.2-2.6,0.5c-0.5,0.2-1.1,0-1.4-0.5c-0.2-0.5,0-1.1,0.5-1.4
			c1.1-0.5,2.2-0.7,3.5-0.7c4.4,0,8.1,3.6,8.1,8.1c0,8.4-12.9,18.5-13.5,18.9C312.2,98.6,311.9,98.7,311.7,98.7z"/>
	</g>
</g>
<path class="st4" d="M379.9,78.2c0-0.5-0.4-0.9-0.9-0.9h-4.7v-1.4c0-2.8-2.6-5-5.9-5s-5.9,2.3-5.9,5v1.4H358c-0.5,0-0.9,0.4-0.9,0.9
	l-1.3,20.1c0,0.2,0.1,0.5,0.2,0.6c0.1,0.2,0.4,0.3,0.6,0.3h23.6c0.2,0,0.5-0.1,0.6-0.3c0.1-0.2,0.3-0.4,0.2-0.6L379.9,78.2z
	 M364.4,76c0-1.8,1.8-3.3,4.1-3.3c2.3,0,4.1,1.5,4.1,3.3v1.4h-8.1L364.4,76L364.4,76z M362.6,79.1V81c0,0.5,0.4,0.9,0.9,0.9
	s0.9-0.4,0.9-0.9v-1.9h8.1V81c0,0.5,0.4,0.9,0.9,0.9s0.9-0.4,0.9-0.9v-1.9h3.8l0.8,12.3h-21l0.8-12.3H362.6z M357.6,97.5l0.3-4.9
	H379l0.3,4.9H357.6z"/>
<polygon id="svg_112_3_" class="st4" points="432.9,85 431.7,83.8 418.7,70.9 417.5,72 430.5,85 417.5,98.1 418.7,99.2 431.7,86.3 
	431.7,86.3 "/>
<polygon id="svg_112_2_" class="st4" points="474.2,85 475.4,86.3 488.4,99.2 489.6,98.1 476.5,85 489.6,72 488.4,70.9 475.4,83.8 
	475.4,83.8 "/>
<g>
	<path class="st4" d="M533.9,70.9L533.9,70.9L533.9,70.9L533.9,70.9c-7.5,0-13.6,6.1-13.6,13.6c0,7.5,6,13.6,13.6,13.6l0,0l0,0l0,0
		c0.6,0,1.3-0.1,1.9-0.1V96c-0.4,0.4-0.9,0.7-1.4,0.8v-5.9c0.5,0,0.9,0.1,1.4,0.1v-1.1c-0.5-0.1-0.9-0.1-1.4-0.1V85h4.9
		c0,0.5,0,0.9-0.1,1.4h1.1c0-0.5,0.1-0.9,0.1-1.4h6c0,0.5-0.1,0.9-0.1,1.4h1.1c0.1-0.6,0.1-1.2,0.1-1.9
		C547.4,77,541.4,70.9,533.9,70.9z M531,72.3c-1,1.1-2,2.8-2.6,4.7c-1.2-0.3-2.3-0.8-3.4-1.4C526.6,74.1,528.6,72.9,531,72.3z
		 M524.2,76.6c1.2,0.7,2.5,1.2,3.9,1.6c-0.4,1.8-0.7,3.7-0.7,5.8h-5.9C521.5,81.1,522.6,78.5,524.2,76.6z M524.2,92.4
		c-1.7-2-2.7-4.6-2.8-7.4h5.9c0.1,2.1,0.3,4,0.7,5.8C526.7,91.1,525.5,91.7,524.2,92.4z M525,93.2c1.1-0.5,2.2-1,3.4-1.4
		c0.6,2,1.5,3.7,2.6,4.8C528.6,96,526.6,94.8,525,93.2z M533.3,96.8c-1.5-0.4-3-2.4-3.9-5.4c1.3-0.3,2.6-0.5,3.9-0.5V96.8z
		 M533.3,89.9c-1.4,0.1-2.8,0.2-4.2,0.5c-0.4-1.6-0.7-3.5-0.7-5.5h4.9V89.9z M533.3,83.9h-4.9c0.1-2,0.3-3.9,0.7-5.5
		c1.4,0.3,2.8,0.5,4.2,0.5V83.9z M533.3,77.9c-1.4-0.1-2.6-0.2-3.9-0.5c0.9-3,2.4-5,3.9-5.4V77.9z M534.4,72.1
		c1.5,0.4,2.9,2.4,3.9,5.4c-1.2,0.3-2.6,0.5-3.9,0.5V72.1z M534.4,83.9V79l0,0c1.4-0.1,2.8-0.2,4.2-0.5c0.4,1.6,0.7,3.5,0.7,5.5
		L534.4,83.9L534.4,83.9z M536.8,72.3c2.3,0.5,4.3,1.8,6,3.4c-1.1,0.5-2.2,1-3.4,1.4C538.8,75.1,537.9,73.4,536.8,72.3z M546.3,83.9
		h-6c-0.1-2-0.3-4-0.7-5.8c1.4-0.4,2.6-0.9,3.9-1.6C545.2,78.5,546.2,81.1,546.3,83.9z"/>
	<polygon class="st4" points="546.8,89.2 545.2,89.2 539.8,94.8 539.8,89.2 538.3,89.2 538.3,99.2 539.8,99.2 539.8,96.6 
		541.6,94.7 545.5,99.2 547.1,99.2 542.5,93.7 	"/>
	<path class="st4" d="M554.5,95.8c1.4-0.5,2.2-1.6,2.2-3.1c0-2.2-1.6-3.5-4.1-3.5h-3.9v10h1.4v-3.1h2.4c0.2,0,0.4,0,0.6,0l2.2,3.1
		h1.6L554.5,95.8z M552.5,94.9H550v-4.5h2.4c1.8,0,2.8,0.8,2.8,2.2S554.3,94.9,552.5,94.9z"/>
</g>
<g>
	<path class="st4" d="M590.7,70.9L590.7,70.9L590.7,70.9L590.7,70.9c-7.5,0-13.6,6.1-13.6,13.6c0,7.5,6,13.6,13.6,13.6l0,0l0,0l0,0
		c0.6,0,1.3-0.1,1.9-0.1V96c-0.4,0.4-0.9,0.7-1.4,0.8v-5.9c0.5,0,0.9,0.1,1.4,0.1v-1.1c-0.5-0.1-0.9-0.1-1.4-0.1V85h4.9
		c0,0.5,0,0.9-0.1,1.4h1.1c0-0.5,0.1-0.9,0.1-1.4h6c0,0.5-0.1,0.9-0.1,1.4h1.1c0.1-0.6,0.1-1.2,0.1-1.9
		C604.3,77,598.3,70.9,590.7,70.9z M587.8,72.3c-1,1.1-2,2.8-2.6,4.7c-1.2-0.3-2.3-0.8-3.4-1.4C583.5,74.1,585.5,72.9,587.8,72.3z
		 M581.1,76.6c1.2,0.7,2.5,1.2,3.9,1.6c-0.4,1.8-0.7,3.7-0.7,5.8h-5.9C578.4,81.1,579.5,78.5,581.1,76.6z M581.1,92.4
		c-1.7-2-2.7-4.6-2.8-7.4h5.9c0.1,2.1,0.3,4,0.7,5.8C583.6,91.1,582.3,91.7,581.1,92.4z M581.8,93.2c1.1-0.5,2.2-1,3.4-1.4
		c0.6,2,1.5,3.7,2.6,4.8C585.5,96,583.5,94.8,581.8,93.2z M590.2,96.8c-1.5-0.4-3-2.4-3.9-5.4c1.3-0.3,2.6-0.5,3.9-0.5V96.8z
		 M590.2,89.9c-1.4,0.1-2.8,0.2-4.2,0.5c-0.4-1.6-0.7-3.5-0.7-5.5h4.9V89.9z M590.2,83.9h-4.9c0.1-2,0.3-3.9,0.7-5.5
		c1.4,0.3,2.8,0.5,4.2,0.5V83.9z M590.2,77.9c-1.4-0.1-2.6-0.2-3.9-0.5c0.9-3,2.4-5,3.9-5.4V77.9z M591.3,72.1
		c1.5,0.4,2.9,2.4,3.9,5.4c-1.2,0.3-2.6,0.5-3.9,0.5V72.1z M591.3,83.9V79l0,0c1.4-0.1,2.8-0.2,4.2-0.5c0.4,1.6,0.7,3.5,0.7,5.5
		L591.3,83.9L591.3,83.9z M593.6,72.3c2.3,0.5,4.3,1.8,6,3.4c-1.1,0.5-2.2,1-3.4,1.4C595.6,75.1,594.7,73.4,593.6,72.3z M603.2,83.9
		h-6c-0.1-2-0.3-4-0.7-5.8c1.4-0.4,2.6-0.9,3.9-1.6C602.1,78.5,603.1,81.1,603.2,83.9z"/>
	<polygon class="st4" points="596.6,94.7 601.7,94.7 601.7,93.5 596.6,93.5 596.6,90.5 602.3,90.5 602.3,89.2 595.2,89.2 
		595.2,99.2 602.5,99.2 602.5,97.9 596.6,97.9 	"/>
	<polygon class="st4" points="612,89.2 612,96.6 605.9,89.2 604.8,89.2 604.8,99.2 606.2,99.2 606.2,91.8 612.2,99.2 613.4,99.2 
		613.4,89.2 	"/>
</g>
<path class="st4" d="M664.3,77.9c-1.3-2.2-3-3.9-5.1-5.1s-4.6-1.9-7.1-1.9s-5,0.6-7.1,1.9s-3.9,3-5.1,5.1c-1.3,2.2-1.9,4.5-1.9,7.1
	c0,2.6,0.6,5,1.9,7.1c1.3,2.2,3,3.9,5.1,5.1c2.2,1.3,4.6,1.9,7.1,1.9c2.6,0,5-0.6,7.1-1.9c2.2-1.3,3.9-3,5.1-5.1
	c1.3-2.2,1.9-4.5,1.9-7.1C666.1,82.4,665.5,80.1,664.3,77.9z M659.1,86l-10.1,6c-0.1,0.1-0.4,0.2-0.6,0.2s-0.4,0-0.6-0.1
	c-0.4-0.2-0.6-0.6-0.6-1V79.2c0-0.5,0.2-0.8,0.6-1c0.4-0.2,0.8-0.2,1.2,0l10.1,5.9c0.4,0.2,0.6,0.6,0.6,1
	C659.6,85.5,659.4,85.8,659.1,86z"/>
<path class="st4" d="M708.8,70.9c-7.9,0-14.3,6.2-14.3,14.2c0,7.7,6.3,14.1,13.9,14.2c7.9,0.1,14.4-6.3,14.4-14
	C722.9,77.3,716.6,70.9,708.8,70.9z M702.8,77.9h11.7v1.7h-11.7V77.9z M713.5,88.3l-4.1-4.5v8.3h-1.5v-8.4l-4.1,4.5l-1.1-1.2l6-6.5
	l6,6.5L713.5,88.3z"/>
<rect y="113.4" class="st0" width="56.7" height="56.7"/>
<rect x="56.7" y="113.4" class="st0" width="56.7" height="56.7"/>
<rect x="113.4" y="113.4" class="st0" width="56.7" height="56.7"/>
<rect x="170.1" y="113.4" class="st0" width="56.7" height="56.7"/>
<rect x="226.8" y="113.4" class="st0" width="56.7" height="56.7"/>
<rect x="283.5" y="113.4" class="st0" width="56.7" height="56.7"/>
<rect x="340.2" y="113.4" class="st0" width="56.7" height="56.7"/>
<rect x="396.9" y="113.4" class="st0" width="56.7" height="56.7"/>
<rect x="453.5" y="113.4" class="st0" width="56.7" height="56.7"/>
<rect x="510.2" y="113.4" class="st0" width="56.7" height="56.7"/>
<rect x="566.9" y="113.4" class="st0" width="56.7" height="56.7"/>
<rect x="623.6" y="113.4" class="st0" width="56.7" height="56.7"/>
<rect x="680.3" y="113.4" class="st0" width="56.7" height="56.7"/>
<g>
	<polygon class="st5" points="25.2,143.6 15.9,152.9 15.9,148.8 14.2,148.8 14.2,155.9 21.3,155.9 21.3,154.1 17.1,154.1 
		26.4,144.9 	"/>
	<polygon class="st5" points="21.3,129.3 21.3,127.6 14.2,127.6 14.2,134.6 15.9,134.6 15.9,130.5 25.2,139.8 26.4,138.6 
		17.1,129.3 	"/>
	<polygon class="st5" points="35.4,127.6 35.4,129.3 39.5,129.3 30.2,138.6 31.5,139.8 40.7,130.5 40.7,134.6 42.5,134.6 
		42.5,127.6 	"/>
	<polygon class="st5" points="40.7,153 31.5,143.6 30.2,144.9 39.5,154.1 35.4,154.1 35.4,155.9 42.5,155.9 42.5,148.8 40.7,148.8 	
		"/>
</g>
<polygon id="svg_8_2_" class="st5" points="99.2,128.7 97.9,127.6 85,140.5 72.1,127.6 70.9,128.8 83.8,141.7 70.9,154.7 
	72.1,155.9 85,142.9 97.9,155.9 99.1,154.7 86.3,141.7 "/>
<g id="svg_4_2_">
	<rect id="svg_5_2_" x="127.6" y="130.9" class="st5" width="28.3" height="1.8"/>
	<rect id="svg_6_2_" x="127.6" y="140.8" class="st5" width="28.3" height="1.8"/>
	<rect id="svg_7_2_" x="127.6" y="150.8" class="st5" width="28.3" height="1.8"/>
</g>
<path id="svg_14_2_" class="st5" d="M211.9,155.3l0.6-0.6l-7.7-7.8c1.8-2,2.8-4.7,2.8-7.6c0-6.4-5.2-11.7-11.7-11.7
	c-6.4,0-11.7,5.2-11.7,11.7c0,6.4,5.2,11.7,11.7,11.7c2.9,0,5.6-1.1,7.6-2.8l7.1,7.1c0.1,0.1,0.1,0.1,0.2,0.1l0.4,0.4L211.9,155.3
	L211.9,155.3L211.9,155.3z M186,139.3c0-5.5,4.5-10,10-10c5.4,0,10,4.5,10,10c0,5.5-4.5,10-10,10C190.5,149.3,186,144.7,186,139.3z"
	/>
<g id="svg_15_2_">
	<polygon id="svg_16_2_" class="st5" points="260.1,127.6 260.1,129.3 266.2,129.3 260.1,135.5 261.3,136.8 267.5,130.5 
		267.5,136.8 269.3,136.8 269.3,127.6 	"/>
	<polygon id="svg_17_2_" class="st5" points="267.5,154.1 242.7,154.1 242.7,129.3 255.1,129.3 255.1,127.6 240.9,127.6 
		240.9,155.9 269.3,155.9 269.3,141.7 267.5,141.7 	"/>
</g>
<g>
	<g>
		<path class="st5" d="M311.7,155.4c-0.2,0-0.4-0.1-0.6-0.2c-0.5-0.4-13.5-10.5-13.5-18.9c0-4.4,3.6-8.1,8.1-8.1
			c4.4,0,8.1,3.6,8.1,8.1c0,0.5-0.5,1-1,1c-0.5,0-1-0.5-1-1c0-3.3-2.7-6.1-6.1-6.1c-3.3,0-6.1,2.7-6.1,6.1c0,6.5,9.5,14.8,12.1,16.9
			c2.5-2.1,12.1-10.4,12.1-16.9c0-3.3-2.7-6.1-6.1-6.1c-0.9,0-1.8,0.2-2.6,0.5c-0.5,0.2-1.1,0-1.4-0.5c-0.2-0.5,0-1.1,0.5-1.4
			c1.1-0.5,2.2-0.7,3.5-0.7c4.4,0,8.1,3.6,8.1,8.1c0,8.4-12.9,18.5-13.5,18.9C312.2,155.3,311.9,155.4,311.7,155.4z"/>
	</g>
</g>
<path class="st5" d="M379.9,134.9c0-0.5-0.4-0.9-0.9-0.9h-4.7v-1.4c0-2.8-2.6-5-5.9-5s-5.9,2.3-5.9,5v1.4H358
	c-0.5,0-0.9,0.4-0.9,0.9l-1.3,20.1c0,0.2,0.1,0.5,0.2,0.6c0.1,0.2,0.4,0.3,0.6,0.3h23.6c0.2,0,0.5-0.1,0.6-0.3
	c0.1-0.2,0.3-0.4,0.2-0.6L379.9,134.9z M364.4,132.7c0-1.8,1.8-3.3,4.1-3.3c2.3,0,4.1,1.5,4.1,3.3v1.4h-8.1L364.4,132.7L364.4,132.7
	z M362.6,135.8v1.9c0,0.5,0.4,0.9,0.9,0.9s0.9-0.4,0.9-0.9v-1.9h8.1v1.9c0,0.5,0.4,0.9,0.9,0.9s0.9-0.4,0.9-0.9v-1.9h3.8l0.8,12.3
	h-21l0.8-12.3H362.6z M357.6,154.2l0.3-4.9H379l0.3,4.9H357.6z"/>
<polygon id="svg_112_5_" class="st5" points="432.9,141.7 431.7,140.5 418.7,127.6 417.5,128.7 430.5,141.7 417.5,154.8 
	418.7,155.9 431.7,142.9 431.7,142.9 "/>
<polygon id="svg_112_4_" class="st5" points="474.2,141.7 475.4,142.9 488.4,155.9 489.6,154.8 476.5,141.7 489.6,128.7 
	488.4,127.6 475.4,140.5 475.4,140.5 "/>
<g>
	<path class="st5" d="M533.9,127.6L533.9,127.6L533.9,127.6L533.9,127.6c-7.5,0-13.6,6.1-13.6,13.6c0,7.5,6,13.6,13.6,13.6l0,0l0,0
		l0,0c0.6,0,1.3-0.1,1.9-0.1v-1.8c-0.4,0.4-0.9,0.7-1.4,0.8v-5.9c0.5,0,0.9,0.1,1.4,0.1v-1.1c-0.5-0.1-0.9-0.1-1.4-0.1v-4.9h4.9
		c0,0.5,0,0.9-0.1,1.4h1.1c0-0.5,0.1-0.9,0.1-1.4h6c0,0.5-0.1,0.9-0.1,1.4h1.1c0.1-0.6,0.1-1.2,0.1-1.9
		C547.4,133.7,541.4,127.6,533.9,127.6z M531,129c-1,1.1-2,2.8-2.6,4.7c-1.2-0.3-2.3-0.8-3.4-1.4C526.6,130.7,528.6,129.6,531,129z
		 M524.2,133.3c1.2,0.7,2.5,1.2,3.9,1.6c-0.4,1.8-0.7,3.7-0.7,5.8h-5.9C521.5,137.8,522.6,135.2,524.2,133.3z M524.2,149.1
		c-1.7-2-2.7-4.6-2.8-7.4h5.9c0.1,2.1,0.3,4,0.7,5.8C526.7,147.8,525.5,148.4,524.2,149.1z M525,149.9c1.1-0.5,2.2-1,3.4-1.4
		c0.6,2,1.5,3.7,2.6,4.8C528.6,152.7,526.6,151.5,525,149.9z M533.3,153.5c-1.5-0.4-3-2.4-3.9-5.4c1.3-0.3,2.6-0.5,3.9-0.5V153.5z
		 M533.3,146.5c-1.4,0.1-2.8,0.2-4.2,0.5c-0.4-1.6-0.7-3.5-0.7-5.5h4.9V146.5z M533.3,140.6h-4.9c0.1-2,0.3-3.9,0.7-5.5
		c1.4,0.3,2.8,0.5,4.2,0.5V140.6z M533.3,134.6c-1.4-0.1-2.6-0.2-3.9-0.5c0.9-3,2.4-5,3.9-5.4V134.6z M534.4,128.8
		c1.5,0.4,2.9,2.4,3.9,5.4c-1.2,0.3-2.6,0.5-3.9,0.5V128.8z M534.4,140.6v-4.9l0,0c1.4-0.1,2.8-0.2,4.2-0.5c0.4,1.6,0.7,3.5,0.7,5.5
		L534.4,140.6L534.4,140.6z M536.8,129c2.3,0.5,4.3,1.8,6,3.4c-1.1,0.5-2.2,1-3.4,1.4C538.8,131.8,537.9,130.1,536.8,129z
		 M546.3,140.6h-6c-0.1-2-0.3-4-0.7-5.8c1.4-0.4,2.6-0.9,3.9-1.6C545.2,135.2,546.2,137.8,546.3,140.6z"/>
	<polygon class="st5" points="546.8,145.9 545.2,145.9 539.8,151.5 539.8,145.9 538.3,145.9 538.3,155.9 539.8,155.9 539.8,153.3 
		541.6,151.4 545.5,155.9 547.1,155.9 542.5,150.4 	"/>
	<path class="st5" d="M554.5,152.5c1.4-0.5,2.2-1.6,2.2-3.1c0-2.2-1.6-3.5-4.1-3.5h-3.9v10h1.4v-3.1h2.4c0.2,0,0.4,0,0.6,0l2.2,3.1
		h1.6L554.5,152.5z M552.5,151.6H550v-4.5h2.4c1.8,0,2.8,0.8,2.8,2.2S554.3,151.6,552.5,151.6z"/>
</g>
<g>
	<path class="st5" d="M590.7,127.6L590.7,127.6L590.7,127.6L590.7,127.6c-7.5,0-13.6,6.1-13.6,13.6c0,7.5,6,13.6,13.6,13.6l0,0l0,0
		l0,0c0.6,0,1.3-0.1,1.9-0.1v-1.8c-0.4,0.4-0.9,0.7-1.4,0.8v-5.9c0.5,0,0.9,0.1,1.4,0.1v-1.1c-0.5-0.1-0.9-0.1-1.4-0.1v-4.9h4.9
		c0,0.5,0,0.9-0.1,1.4h1.1c0-0.5,0.1-0.9,0.1-1.4h6c0,0.5-0.1,0.9-0.1,1.4h1.1c0.1-0.6,0.1-1.2,0.1-1.9
		C604.3,133.7,598.3,127.6,590.7,127.6z M587.8,129c-1,1.1-2,2.8-2.6,4.7c-1.2-0.3-2.3-0.8-3.4-1.4
		C583.5,130.7,585.5,129.6,587.8,129z M581.1,133.3c1.2,0.7,2.5,1.2,3.9,1.6c-0.4,1.8-0.7,3.7-0.7,5.8h-5.9
		C578.4,137.8,579.5,135.2,581.1,133.3z M581.1,149.1c-1.7-2-2.7-4.6-2.8-7.4h5.9c0.1,2.1,0.3,4,0.7,5.8
		C583.6,147.8,582.3,148.4,581.1,149.1z M581.8,149.9c1.1-0.5,2.2-1,3.4-1.4c0.6,2,1.5,3.7,2.6,4.8
		C585.5,152.7,583.5,151.5,581.8,149.9z M590.2,153.5c-1.5-0.4-3-2.4-3.9-5.4c1.3-0.3,2.6-0.5,3.9-0.5V153.5z M590.2,146.5
		c-1.4,0.1-2.8,0.2-4.2,0.5c-0.4-1.6-0.7-3.5-0.7-5.5h4.9V146.5z M590.2,140.6h-4.9c0.1-2,0.3-3.9,0.7-5.5c1.4,0.3,2.8,0.5,4.2,0.5
		V140.6z M590.2,134.6c-1.4-0.1-2.6-0.2-3.9-0.5c0.9-3,2.4-5,3.9-5.4V134.6z M591.3,128.8c1.5,0.4,2.9,2.4,3.9,5.4
		c-1.2,0.3-2.6,0.5-3.9,0.5V128.8z M591.3,140.6v-4.9l0,0c1.4-0.1,2.8-0.2,4.2-0.5c0.4,1.6,0.7,3.5,0.7,5.5L591.3,140.6L591.3,140.6
		z M593.6,129c2.3,0.5,4.3,1.8,6,3.4c-1.1,0.5-2.2,1-3.4,1.4C595.6,131.8,594.7,130.1,593.6,129z M603.2,140.6h-6
		c-0.1-2-0.3-4-0.7-5.8c1.4-0.4,2.6-0.9,3.9-1.6C602.1,135.2,603.1,137.8,603.2,140.6z"/>
	<polygon class="st5" points="596.6,151.4 601.7,151.4 601.7,150.2 596.6,150.2 596.6,147.2 602.3,147.2 602.3,145.9 595.2,145.9 
		595.2,155.9 602.5,155.9 602.5,154.6 596.6,154.6 	"/>
	<polygon class="st5" points="612,145.9 612,153.3 605.9,145.9 604.8,145.9 604.8,155.9 606.2,155.9 606.2,148.4 612.2,155.9 
		613.4,155.9 613.4,145.9 	"/>
</g>
<path class="st5" d="M664.3,134.6c-1.3-2.2-3-3.9-5.1-5.1s-4.6-1.9-7.1-1.9s-5,0.6-7.1,1.9s-3.9,3-5.1,5.1c-1.3,2.2-1.9,4.5-1.9,7.1
	c0,2.6,0.6,5,1.9,7.1c1.3,2.2,3,3.9,5.1,5.1c2.2,1.3,4.6,1.9,7.1,1.9c2.6,0,5-0.6,7.1-1.9c2.2-1.3,3.9-3,5.1-5.1
	c1.3-2.2,1.9-4.5,1.9-7.1C666.1,139.1,665.5,136.8,664.3,134.6z M659.1,142.7l-10.1,6c-0.1,0.1-0.4,0.2-0.6,0.2s-0.4,0-0.6-0.1
	c-0.4-0.2-0.6-0.6-0.6-1v-11.8c0-0.5,0.2-0.8,0.6-1c0.4-0.2,0.8-0.2,1.2,0l10.1,5.9c0.4,0.2,0.6,0.6,0.6,1
	C659.6,142.2,659.4,142.5,659.1,142.7z"/>
<path class="st5" d="M708.8,127.6c-7.9,0-14.3,6.2-14.3,14.2c0,7.7,6.3,14.1,13.9,14.2c7.9,0.1,14.4-6.3,14.4-14
	C722.9,134,716.6,127.6,708.8,127.6z M702.8,134.6h11.7v1.7h-11.7V134.6z M713.5,145l-4.1-4.5v8.3h-1.5v-8.4l-4.1,4.5l-1.1-1.2
	l6-6.5l6,6.5L713.5,145z"/>
<rect y="170.1" class="st0" width="56.7" height="56.7"/>
<rect x="56.7" y="170.1" class="st0" width="56.7" height="56.7"/>
<rect x="113.4" y="170.1" class="st0" width="56.7" height="56.7"/>
<rect x="170.1" y="170.1" class="st0" width="56.7" height="56.7"/>
<rect x="226.8" y="170.1" class="st0" width="56.7" height="56.7"/>
<rect x="283.5" y="170.1" class="st0" width="56.7" height="56.7"/>
<rect x="340.2" y="170.1" class="st0" width="56.7" height="56.7"/>
<rect x="396.9" y="170.1" class="st0" width="56.7" height="56.7"/>
<rect x="453.5" y="170.1" class="st0" width="56.7" height="56.7"/>
<rect x="510.2" y="170.1" class="st0" width="56.7" height="56.7"/>
<rect x="566.9" y="170.1" class="st0" width="56.7" height="56.7"/>
<rect x="623.6" y="170.1" class="st0" width="56.7" height="56.7"/>
<rect x="680.3" y="170.1" class="st0" width="56.7" height="56.7"/>
<g>
	<polygon class="st6" points="25.2,200.3 15.9,209.6 15.9,205.5 14.2,205.5 14.2,212.6 21.3,212.6 21.3,210.8 17.1,210.8 
		26.4,201.5 	"/>
	<polygon class="st6" points="21.3,186 21.3,184.3 14.2,184.3 14.2,191.3 15.9,191.3 15.9,187.2 25.2,196.5 26.4,195.3 17.1,186 	
		"/>
	<polygon class="st6" points="35.4,184.3 35.4,186 39.5,186 30.2,195.3 31.5,196.5 40.7,187.2 40.7,191.3 42.5,191.3 42.5,184.3 	
		"/>
	<polygon class="st6" points="40.7,209.7 31.5,200.3 30.2,201.5 39.5,210.8 35.4,210.8 35.4,212.6 42.5,212.6 42.5,205.5 
		40.7,205.5 	"/>
</g>
<polygon id="svg_8_3_" class="st6" points="99.2,185.4 97.9,184.3 85,197.2 72.1,184.3 70.9,185.5 83.8,198.4 70.9,211.4 
	72.1,212.6 85,199.6 97.9,212.6 99.1,211.4 86.3,198.4 "/>
<g id="svg_4_3_">
	<rect id="svg_5_3_" x="127.6" y="187.6" class="st6" width="28.3" height="1.8"/>
	<rect id="svg_6_3_" x="127.6" y="197.5" class="st6" width="28.3" height="1.8"/>
	<rect id="svg_7_3_" x="127.6" y="207.5" class="st6" width="28.3" height="1.8"/>
</g>
<path id="svg_14_3_" class="st6" d="M211.9,212l0.6-0.6l-7.7-7.8c1.8-2,2.8-4.7,2.8-7.6c0-6.4-5.2-11.7-11.7-11.7
	c-6.4,0-11.7,5.2-11.7,11.7c0,6.4,5.2,11.7,11.7,11.7c2.9,0,5.6-1.1,7.6-2.8l7.1,7.1c0.1,0.1,0.1,0.1,0.2,0.1l0.4,0.4L211.9,212
	L211.9,212L211.9,212z M186,196c0-5.5,4.5-10,10-10c5.4,0,10,4.5,10,10s-4.5,10-10,10C190.5,206,186,201.4,186,196z"/>
<g id="svg_15_3_">
	<polygon id="svg_16_3_" class="st6" points="260.1,184.3 260.1,186 266.2,186 260.1,192.2 261.3,193.5 267.5,187.2 267.5,193.5 
		269.3,193.5 269.3,184.3 	"/>
	<polygon id="svg_17_3_" class="st6" points="267.5,210.8 242.7,210.8 242.7,186 255.1,186 255.1,184.3 240.9,184.3 240.9,212.6 
		269.3,212.6 269.3,198.4 267.5,198.4 	"/>
</g>
<g>
	<g>
		<path class="st6" d="M311.7,212.1c-0.2,0-0.4-0.1-0.6-0.2c-0.5-0.4-13.5-10.5-13.5-18.9c0-4.4,3.6-8.1,8.1-8.1
			c4.4,0,8.1,3.6,8.1,8.1c0,0.5-0.5,1-1,1c-0.5,0-1-0.5-1-1c0-3.3-2.7-6.1-6.1-6.1c-3.3,0-6.1,2.7-6.1,6.1c0,6.5,9.5,14.8,12.1,16.9
			c2.5-2.1,12.1-10.4,12.1-16.9c0-3.3-2.7-6.1-6.1-6.1c-0.9,0-1.8,0.2-2.6,0.5c-0.5,0.2-1.1,0-1.4-0.5c-0.2-0.5,0-1.1,0.5-1.4
			c1.1-0.5,2.2-0.7,3.5-0.7c4.4,0,8.1,3.6,8.1,8.1c0,8.4-12.9,18.5-13.5,18.9C312.2,212,311.9,212.1,311.7,212.1z"/>
	</g>
</g>
<path class="st6" d="M379.9,191.6c0-0.5-0.4-0.9-0.9-0.9h-4.7v-1.4c0-2.8-2.6-5-5.9-5s-5.9,2.3-5.9,5v1.4H358
	c-0.5,0-0.9,0.4-0.9,0.9l-1.3,20.1c0,0.2,0.1,0.5,0.2,0.6c0.1,0.2,0.4,0.3,0.6,0.3h23.6c0.2,0,0.5-0.1,0.6-0.3
	c0.1-0.2,0.3-0.4,0.2-0.6L379.9,191.6z M364.4,189.4c0-1.8,1.8-3.3,4.1-3.3c2.3,0,4.1,1.5,4.1,3.3v1.4h-8.1L364.4,189.4L364.4,189.4
	z M362.6,192.5v1.9c0,0.5,0.4,0.9,0.9,0.9s0.9-0.4,0.9-0.9v-1.9h8.1v1.9c0,0.5,0.4,0.9,0.9,0.9s0.9-0.4,0.9-0.9v-1.9h3.8l0.8,12.3
	h-21l0.8-12.3H362.6z M357.6,210.9l0.3-4.9H379l0.3,4.9H357.6z"/>
<polygon id="svg_112_7_" class="st6" points="432.9,198.4 431.7,197.2 418.7,184.3 417.5,185.4 430.5,198.4 417.5,211.5 
	418.7,212.6 431.7,199.6 431.7,199.6 "/>
<polygon id="svg_112_6_" class="st6" points="474.2,198.4 475.4,199.6 488.4,212.6 489.6,211.5 476.5,198.4 489.6,185.4 
	488.4,184.3 475.4,197.2 475.4,197.2 "/>
<g>
	<path class="st6" d="M533.9,184.3L533.9,184.3L533.9,184.3L533.9,184.3c-7.5,0-13.6,6.1-13.6,13.6s6,13.6,13.6,13.6l0,0l0,0l0,0
		c0.6,0,1.3-0.1,1.9-0.1v-1.8c-0.4,0.4-0.9,0.7-1.4,0.8v-5.9c0.5,0,0.9,0.1,1.4,0.1v-1.1c-0.5-0.1-0.9-0.1-1.4-0.1v-4.9h4.9
		c0,0.5,0,0.9-0.1,1.4h1.1c0-0.5,0.1-0.9,0.1-1.4h6c0,0.5-0.1,0.9-0.1,1.4h1.1c0.1-0.6,0.1-1.2,0.1-1.9
		C547.4,190.4,541.4,184.3,533.9,184.3z M531,185.7c-1,1.1-2,2.8-2.6,4.7c-1.2-0.3-2.3-0.8-3.4-1.4
		C526.6,187.4,528.6,186.3,531,185.7z M524.2,189.9c1.2,0.7,2.5,1.2,3.9,1.6c-0.4,1.8-0.7,3.7-0.7,5.8h-5.9
		C521.5,194.5,522.6,191.9,524.2,189.9z M524.2,205.7c-1.7-2-2.7-4.6-2.8-7.4h5.9c0.1,2.1,0.3,4,0.7,5.8
		C526.7,204.5,525.5,205.1,524.2,205.7z M525,206.6c1.1-0.5,2.2-1,3.4-1.4c0.6,2,1.5,3.7,2.6,4.8C528.6,209.4,526.6,208.2,525,206.6
		z M533.3,210.2c-1.5-0.4-3-2.4-3.9-5.4c1.3-0.3,2.6-0.5,3.9-0.5V210.2z M533.3,203.2c-1.4,0.1-2.8,0.2-4.2,0.5
		c-0.4-1.6-0.7-3.5-0.7-5.5h4.9V203.2z M533.3,197.3h-4.9c0.1-2,0.3-3.9,0.7-5.5c1.4,0.3,2.8,0.5,4.2,0.5V197.3z M533.3,191.3
		c-1.4-0.1-2.6-0.2-3.9-0.5c0.9-3,2.4-5,3.9-5.4V191.3z M534.4,185.5c1.5,0.4,2.9,2.4,3.9,5.4c-1.2,0.3-2.6,0.5-3.9,0.5V185.5z
		 M534.4,197.3v-4.9l0,0c1.4-0.1,2.8-0.2,4.2-0.5c0.4,1.6,0.7,3.5,0.7,5.5L534.4,197.3L534.4,197.3z M536.8,185.7
		c2.3,0.5,4.3,1.8,6,3.4c-1.1,0.5-2.2,1-3.4,1.4C538.8,188.5,537.9,186.8,536.8,185.7z M546.3,197.3h-6c-0.1-2-0.3-4-0.7-5.8
		c1.4-0.4,2.6-0.9,3.9-1.6C545.2,191.9,546.2,194.5,546.3,197.3z"/>
	<polygon class="st6" points="546.8,202.6 545.2,202.6 539.8,208.2 539.8,202.6 538.3,202.6 538.3,212.6 539.8,212.6 539.8,210 
		541.6,208.1 545.5,212.6 547.1,212.6 542.5,207.1 	"/>
	<path class="st6" d="M554.5,209.2c1.4-0.5,2.2-1.6,2.2-3.1c0-2.2-1.6-3.5-4.1-3.5h-3.9v10h1.4v-3.1h2.4c0.2,0,0.4,0,0.6,0l2.2,3.1
		h1.6L554.5,209.2z M552.5,208.3H550v-4.5h2.4c1.8,0,2.8,0.8,2.8,2.2S554.3,208.3,552.5,208.3z"/>
</g>
<g>
	<path class="st6" d="M590.7,184.3L590.7,184.3L590.7,184.3L590.7,184.3c-7.5,0-13.6,6.1-13.6,13.6s6,13.6,13.6,13.6l0,0l0,0l0,0
		c0.6,0,1.3-0.1,1.9-0.1v-1.8c-0.4,0.4-0.9,0.7-1.4,0.8v-5.9c0.5,0,0.9,0.1,1.4,0.1v-1.1c-0.5-0.1-0.9-0.1-1.4-0.1v-4.9h4.9
		c0,0.5,0,0.9-0.1,1.4h1.1c0-0.5,0.1-0.9,0.1-1.4h6c0,0.5-0.1,0.9-0.1,1.4h1.1c0.1-0.6,0.1-1.2,0.1-1.9
		C604.3,190.4,598.3,184.3,590.7,184.3z M587.8,185.7c-1,1.1-2,2.8-2.6,4.7c-1.2-0.3-2.3-0.8-3.4-1.4
		C583.5,187.4,585.5,186.3,587.8,185.7z M581.1,189.9c1.2,0.7,2.5,1.2,3.9,1.6c-0.4,1.8-0.7,3.7-0.7,5.8h-5.9
		C578.4,194.5,579.5,191.9,581.1,189.9z M581.1,205.7c-1.7-2-2.7-4.6-2.8-7.4h5.9c0.1,2.1,0.3,4,0.7,5.8
		C583.6,204.5,582.3,205.1,581.1,205.7z M581.8,206.6c1.1-0.5,2.2-1,3.4-1.4c0.6,2,1.5,3.7,2.6,4.8
		C585.5,209.4,583.5,208.2,581.8,206.6z M590.2,210.2c-1.5-0.4-3-2.4-3.9-5.4c1.3-0.3,2.6-0.5,3.9-0.5V210.2z M590.2,203.2
		c-1.4,0.1-2.8,0.2-4.2,0.5c-0.4-1.6-0.7-3.5-0.7-5.5h4.9V203.2z M590.2,197.3h-4.9c0.1-2,0.3-3.9,0.7-5.5c1.4,0.3,2.8,0.5,4.2,0.5
		V197.3z M590.2,191.3c-1.4-0.1-2.6-0.2-3.9-0.5c0.9-3,2.4-5,3.9-5.4V191.3z M591.3,185.5c1.5,0.4,2.9,2.4,3.9,5.4
		c-1.2,0.3-2.6,0.5-3.9,0.5V185.5z M591.3,197.3v-4.9l0,0c1.4-0.1,2.8-0.2,4.2-0.5c0.4,1.6,0.7,3.5,0.7,5.5L591.3,197.3L591.3,197.3
		z M593.6,185.7c2.3,0.5,4.3,1.8,6,3.4c-1.1,0.5-2.2,1-3.4,1.4C595.6,188.5,594.7,186.8,593.6,185.7z M603.2,197.3h-6
		c-0.1-2-0.3-4-0.7-5.8c1.4-0.4,2.6-0.9,3.9-1.6C602.1,191.9,603.1,194.5,603.2,197.3z"/>
	<polygon class="st6" points="596.6,208.1 601.7,208.1 601.7,206.9 596.6,206.9 596.6,203.9 602.3,203.9 602.3,202.6 595.2,202.6 
		595.2,212.6 602.5,212.6 602.5,211.3 596.6,211.3 	"/>
	<polygon class="st6" points="612,202.6 612,210 605.9,202.6 604.8,202.6 604.8,212.6 606.2,212.6 606.2,205.1 612.2,212.6 
		613.4,212.6 613.4,202.6 	"/>
</g>
<path class="st6" d="M664.3,191.3c-1.3-2.2-3-3.9-5.1-5.1s-4.6-1.9-7.1-1.9s-5,0.6-7.1,1.9s-3.9,3-5.1,5.1s-1.9,4.5-1.9,7.1
	c0,2.6,0.6,5,1.9,7.1c1.3,2.2,3,3.9,5.1,5.1c2.2,1.3,4.6,1.9,7.1,1.9c2.6,0,5-0.6,7.1-1.9s3.9-3,5.1-5.1c1.3-2.2,1.9-4.5,1.9-7.1
	C666.1,195.8,665.5,193.5,664.3,191.3z M659.1,199.4l-10.1,6c-0.1,0.1-0.4,0.2-0.6,0.2s-0.4,0-0.6-0.1c-0.4-0.2-0.6-0.6-0.6-1v-11.8
	c0-0.5,0.2-0.8,0.6-1c0.4-0.2,0.8-0.2,1.2,0l10.1,5.9c0.4,0.2,0.6,0.6,0.6,1C659.6,198.9,659.4,199.2,659.1,199.4z"/>
<path class="st6" d="M708.8,184.3c-7.9,0-14.3,6.2-14.3,14.2c0,7.7,6.3,14.1,13.9,14.2c7.9,0.1,14.4-6.3,14.4-14
	C722.9,190.7,716.6,184.3,708.8,184.3z M702.8,191.3h11.7v1.7h-11.7V191.3z M713.5,201.7l-4.1-4.5v8.3h-1.5v-8.4l-4.1,4.5l-1.1-1.2
	l6-6.5l6,6.5L713.5,201.7z"/>
</svg>
